<?xml version="1.0" encoding="utf-8"?>
<!-- Generator: Adobe Illustrator 26.5.0, SVG Export Plug-In . SVG Version: 6.00 Build 0)  -->
<svg version="1.1" id="Layer_1" xmlns="http://www.w3.org/2000/svg" xmlns:xlink="http://www.w3.org/1999/xlink" x="0px" y="0px"
	 viewBox="0 0 172 115" style="enable-background:new 0 0 172 115;" xml:space="preserve">
<style type="text/css">
	.st0{fill:#A7A6A8;}
	.st1{fill:#3B4678;}
	.st2{fill:#ABABAD;}
	.st3{fill:#CED25D;}
	.st4{fill:#85B35D;}
	.st5{fill:#5EB2B9;}
	.st6{fill:#75AF6B;}
	.st7{fill:#4E88C2;}
	.st8{fill:#374870;}
	.st9{fill:#767D80;}
</style>
<g>
	<g>
		<rect x="100.97" y="3.38" class="st0" width="1.89" height="1.89"/>
		<rect x="140.22" y="26.8" class="st0" width="1.89" height="1.89"/>
		<g>
			<path class="st0" d="M163.16,24.78c0.46-0.21,0.84-0.55,1.11-0.95c0.27-0.42,0.48-0.92,0.61-1.51c0.13-0.59,0.17-1.26,0.17-2
				V7.14h-1.89v13.19c0,0.53-0.02,0.99-0.08,1.34c-0.06,0.38-0.15,0.67-0.27,0.9c-0.13,0.23-0.32,0.4-0.55,0.5s-0.53,0.15-0.88,0.15
				c-0.17,0-0.32,0-0.44-0.02s-0.29-0.06-0.53-0.13l-0.5,1.81c0.53,0.15,1.03,0.21,1.53,0.21C162.13,25.12,162.7,25.02,163.16,24.78
				"/>
			<path class="st0" d="M156.67,3.8h-2.58V3.36c0-0.23,0.04-0.42,0.15-0.55c0.08-0.11,0.29-0.17,0.59-0.17h1.3V1.32h-1.34
				c-0.71,0-1.28,0.19-1.66,0.57s-0.59,0.99-0.59,1.81v1.53h4.14V3.8z"/>
			<rect x="136.44" y="26.8" class="st0" width="1.89" height="1.89"/>
			<rect x="104.75" y="3.38" class="st0" width="1.89" height="1.89"/>
			<path class="st0" d="M148.16,18.44c0.71,0.5,1.55,0.88,2.5,1.13c0.95,0.25,1.93,0.36,3,0.36h0.5l0.63-1.32v1.87
				c0,0.99-0.27,1.7-0.84,2.12c-0.57,0.42-1.37,0.63-2.39,0.63c-0.59,0-1.11-0.06-1.58-0.17c-0.46-0.11-0.99-0.29-1.6-0.57
				l-0.59,1.81c0.71,0.27,1.37,0.46,1.93,0.61c0.57,0.13,1.11,0.21,1.68,0.21c1.85,0,3.17-0.44,4.01-1.3
				c0.84-0.88,1.26-2.04,1.26-3.53V7.14h-3.02c-1.16,0-2.23,0.17-3.19,0.5s-1.79,0.78-2.46,1.34c-0.69,0.57-1.22,1.26-1.6,2.06
				c-0.38,0.8-0.57,1.66-0.57,2.58c0,1.11,0.21,2.06,0.63,2.86C146.88,17.29,147.45,17.94,148.16,18.44 M148.16,11.76
				c0.29-0.57,0.67-1.05,1.16-1.45s1.03-0.71,1.64-0.92c0.59-0.21,1.22-0.32,1.85-0.34l0,0h3.05l-1.07,0.55v8.47h-1.89
				c-0.71,0-1.37-0.11-2-0.29c-0.63-0.19-1.18-0.48-1.64-0.86c-0.46-0.38-0.84-0.84-1.11-1.39c-0.27-0.55-0.4-1.18-0.4-1.89
				C147.74,12.94,147.89,12.33,148.16,11.76"/>
			<path class="st0" d="M101.47,24.85h3.93v-1.41c0.04,0.06,0.08,0.13,0.13,0.19c0.29,0.42,0.65,0.74,1.11,0.95
				c0.46,0.21,1.03,0.34,1.7,0.34h34.43V7.14h-1.89v15.9h-1.95h-30.5c-0.36,0-0.65-0.04-0.88-0.15c-0.23-0.11-0.4-0.27-0.55-0.5
				c-0.13-0.23-0.23-0.53-0.27-0.9c-0.06-0.38-0.08-0.82-0.08-1.34v-13h-5.1c-5.21,0-8.78,4.14-8.78,8.86v0.04
				C92.75,20.77,96.26,24.85,101.47,24.85 M94.77,15.94c0-3.89,2.79-7.02,6.72-7.02h4.41l-1.16,0.57v10.63c0,0.74,0.06,1.41,0.17,2
				c0.06,0.34,0.17,0.65,0.29,0.95h-3.68c-3.93,0-6.76-3.17-6.76-7.08V15.94z"/>
			<polygon class="st0" points="83.3,20.18 84.12,22.35 72.15,7.12 70.26,7.12 70.26,24.83 72.21,24.83 72.21,11.49 71.1,8.9 
				83.66,24.83 85.25,24.83 85.25,7.12 83.3,7.12 			"/>
			<path class="st0" d="M110.19,53.08l10.88-10.38v-7.12H92v8.11h14.91l5.52-3.55L98.63,54l1.47,6.01h3.93
				c5.29,0,8.42,1.95,8.42,5.46v0.13c0,3.19-2.52,5.21-6.09,5.21c-4.37,0-7.44-1.85-10.4-5.15l-6.51,6.2
				c3.7,4.35,9.03,7.44,16.78,7.44c9.6,0,15.5-5.94,15.5-14.05v-0.13C121.76,57.13,116.03,54.07,110.19,53.08"/>
			<path class="st0" d="M57.97,6.83c-5.4,0-9.07,4.26-9.07,9.16v0.04c0,4.87,3.61,9.1,9.01,9.1s9.07-4.26,9.07-9.16v-0.04
				C67,11.05,63.37,6.83,57.97,6.83 M64.92,16.03c0,4.01-2.88,7.25-6.93,7.25s-6.99-3.28-6.99-7.31v-0.04
				c0-4.01,2.88-7.25,6.93-7.25s6.99,3.28,6.99,7.31V16.03z"/>
			<path class="st0" d="M147.14,34.87c-13.28,0-22.94,10-22.94,22.22v0.13c0,12.2,9.54,22.1,22.81,22.1
				c13.28,0,22.94-10,22.94-22.22v-0.13C169.95,44.74,160.41,34.87,147.14,34.87 M160.05,57.2c0,7.37-5.29,13.38-12.92,13.38
				s-13.04-6.13-13.04-13.51v-0.13c0-7.37,5.29-13.38,12.92-13.38s13.04,6.13,13.04,13.51V57.2z"/>
			<rect x="43.45" y="7.12" class="st0" width="2" height="17.69"/>
			<path class="st0" d="M11.32,73.64l1.83-1.41l9.41-7.25c7.62-5.88,11.32-9.45,11.32-16.64v-0.11c0-8.04-5.9-13.25-14.83-13.25
				c-7.69,0-11.8,3.13-16.05,8.91l6.64,5.34c3.19-3.93,5.48-5.78,8.8-5.78c3.38,0,5.78,1.95,5.78,5.59c0,3.55-2.1,5.88-7.44,10.31
				L2.45,71.08v7.48H34.3v-8.17h-16.4L11.32,73.64z"/>
			<polygon class="st0" points="11.46,24.95 19.07,7.12 16.92,7.12 10.9,21.63 11.09,23.57 10.6,22.37 5.37,9.77 4.28,7.12 
				2.05,7.12 9.68,24.95 			"/>
			<rect x="21.8" y="7.12" class="st0" width="2" height="17.69"/>
			<path class="st0" d="M34.38,15.02c-3.91-0.84-4.81-1.76-4.81-3.44v-0.04c0-1.6,1.47-2.86,3.78-2.86c1.83,0,3.47,0.59,5.13,1.91
				l1.16-1.53c-1.81-1.45-3.65-2.18-6.24-2.18c-3.36,0-5.82,2.04-5.82,4.83v0.04c0,2.9,1.87,4.22,5.94,5.1
				c3.72,0.78,4.6,1.72,4.6,3.36v0.04c0,1.74-1.58,3-3.95,3c-2.46,0-4.22-0.84-6.07-2.5l-1.24,1.47c2.12,1.89,4.43,2.84,7.25,2.84
				c3.53,0,6.05-1.97,6.05-5v-0.04C40.16,17.31,38.33,15.88,34.38,15.02"/>
			<polygon class="st1" points="60.03,32.03 62.21,34.11 60.11,36.3 57.95,34.22 			"/>
			<polygon class="st2" points="65.03,34.22 67.21,36.3 69.29,34.11 67.11,32.03 			"/>
			<polygon class="st3" points="61.96,36.95 63.64,38.58 65.28,36.88 63.58,35.27 			"/>
			<polygon class="st4" points="68.18,37.87 69.88,39.51 71.5,37.81 69.79,36.19 			"/>
			<polygon class="st3" points="59.19,39.53 60.87,41.17 62.51,39.47 60.8,37.85 			"/>
			<polygon class="st5" points="64.88,39.74 66.56,41.36 68.2,39.68 66.5,38.04 			"/>
			<polygon class="st4" points="62.65,41.69 63.83,42.83 64.98,41.63 63.79,40.5 			"/>
			<polygon class="st6" points="67.15,42.58 68.35,43.73 69.48,42.53 68.3,41.4 			"/>
			
				<rect x="77.29" y="33.15" transform="matrix(0.9836 -0.1802 0.1802 0.9836 -5.0161 14.8397)" class="st7" width="3.76" height="3.76"/>
			
				<rect x="72.39" y="34.76" transform="matrix(0.9836 -0.1801 0.1801 0.9836 -5.3246 13.904)" class="st8" width="3.02" height="3.02"/>
			
				<rect x="78.13" y="38.9" transform="matrix(0.9836 -0.1804 0.1804 0.9836 -5.9843 15.031)" class="st5" width="3.02" height="3.02"/>
			<polygon class="st3" points="73.81,39.64 74.23,41.95 76.54,41.53 76.12,39.22 			"/>
			
				<rect x="78.48" y="43.79" transform="matrix(0.9836 -0.1801 0.1801 0.9836 -6.7967 15.083)" class="st2" width="2.35" height="2.35"/>
			
				<rect x="70.52" y="40.35" transform="matrix(0.9836 -0.1801 0.1801 0.9836 -6.3062 13.593)" class="st5" width="2.35" height="2.35"/>
			
				<rect x="74.73" y="43.37" transform="matrix(0.9836 -0.1801 0.1801 0.9836 -6.7822 14.399)" class="st4" width="2.35" height="2.35"/>
			
				<rect x="71.73" y="43.71" transform="matrix(0.9836 -0.1804 0.1804 0.9836 -6.8441 13.82)" class="st2" width="1.66" height="1.66"/>
			
				<rect x="74.84" y="47.07" transform="matrix(0.9837 -0.1799 0.1799 0.9837 -7.3825 14.3942)" class="st6" width="1.66" height="1.66"/>
			<polygon class="st1" points="88.01,45.62 86.39,49.02 89.79,50.64 91.41,47.24 			"/>
			<polygon class="st5" points="83.17,44.07 81.87,46.78 84.6,48.08 85.91,45.35 			"/>
			<polygon class="st4" points="85.4,50.77 84.1,53.5 86.83,54.78 88.13,52.07 			"/>
			<polygon class="st3" points="81.83,48.73 80.82,50.85 82.94,51.86 83.95,49.74 			"/>
			<polygon class="st3" points="82.9,54.91 81.89,57.03 84.02,58.04 85.02,55.91 			"/>
			<polygon class="st7" points="78.47,47.47 77.46,49.59 79.58,50.6 80.59,48.48 			"/>
			<polygon class="st2" points="80.11,52.36 79.1,54.49 81.22,55.49 82.23,53.37 			"/>
			<polygon class="st4" points="77.55,50.87 76.83,52.36 78.32,53.08 79.04,51.59 			"/>
			
				<rect x="77.68" y="55.71" transform="matrix(0.4298 -0.9029 0.9029 0.4298 -6.282 103.1242)" class="st5" width="1.66" height="1.66"/>
			<polygon class="st7" points="89.83,61.88 86.54,63.69 88.34,66.98 91.64,65.18 			"/>
			<polygon class="st5" points="86.83,57.78 84.18,59.23 85.63,61.88 88.28,60.43 			"/>
			<polygon class="st5" points="84.71,64.53 82.06,65.98 83.51,68.62 86.16,67.17 			"/>
			<polygon class="st1" points="83.01,60.79 80.95,61.92 82.08,63.98 84.14,62.85 			"/>
			<polygon class="st6" points="80.26,66.44 78.2,67.57 79.33,69.63 81.39,68.5 			"/>
			<polygon class="st8" points="81.03,57.8 78.97,58.94 80.09,61 82.17,59.86 			"/>
			<polygon class="st3" points="79.48,62.74 77.42,63.88 78.55,65.91 80.61,64.8 			"/>
			<polygon class="st2" points="78.28,60.03 76.83,60.83 77.63,62.28 79.08,61.48 			"/>
			<polygon class="st5" points="76.08,64.04 74.63,64.84 75.42,66.29 76.87,65.49 			"/>
			
				<rect x="77.81" y="75.89" transform="matrix(0.1227 -0.9924 0.9924 0.1227 -7.2658 147.3109)" class="st4" width="3.76" height="3.76"/>
			
				<rect x="78.57" y="70.86" transform="matrix(0.123 -0.9924 0.9924 0.123 -1.5868 142.9435)" class="st8" width="3.02" height="3.02"/>
			
				<rect x="72.89" y="75.08" transform="matrix(0.123 -0.9924 0.9924 0.123 -10.7642 141.0129)" class="st5" width="3.02" height="3.02"/>
			
				<rect x="74.4" y="71.11" transform="matrix(0.1227 -0.9924 0.9924 0.1227 -5.4412 138.4261)" class="st4" width="2.35" height="2.35"/>
			
				<rect x="68.87" y="74.09" transform="matrix(0.1227 -0.9924 0.9924 0.1227 -13.2482 135.5462)" class="st2" width="2.35" height="2.35"/>
			
				<rect x="74.56" y="67.52" transform="matrix(0.123 -0.9924 0.9924 0.123 -1.7563 135.4012)" class="st2" width="2.35" height="2.35"/>
			
				<rect x="70.4" y="70.62" transform="matrix(0.123 -0.9924 0.9924 0.123 -8.4796 133.9976)" class="st4" width="2.35" height="2.35"/>
			
				<rect x="71.76" y="67.79" transform="matrix(0.1227 -0.9924 0.9924 0.1227 -4.4188 132.2414)" class="st2" width="1.66" height="1.66"/>
			
				<rect x="67.63" y="69.74" transform="matrix(0.1226 -0.9925 0.9925 0.1226 -9.9744 129.8583)" class="st2" width="1.66" height="1.66"/>
			<polygon class="st3" points="66.92,82.99 64.14,80.43 61.6,83.2 64.35,85.74 			"/>
			<polygon class="st4" points="66.41,30.35 63.64,27.79 61.08,30.54 63.85,33.1 			"/>
			<polygon class="st5" points="69.86,78.87 67.65,76.81 65.59,79.02 67.8,81.08 			"/>
			<polygon class="st4" points="62.78,78.98 60.57,76.94 58.51,79.15 60.72,81.18 			"/>
			<polygon class="st7" points="65.8,76.18 64.08,74.59 62.48,76.31 64.21,77.91 			"/>
			<polygon class="st3" points="59.57,75.36 57.84,73.77 56.25,75.49 57.97,77.09 			"/>
			<polygon class="st3" points="68.01,73.37 66.29,71.77 64.69,73.5 66.41,75.09 			"/>
			<polygon class="st2" points="62.84,73.45 61.12,71.86 59.52,73.58 61.25,75.18 			"/>
			<polygon class="st8" points="65.03,71.46 63.81,70.34 62.69,71.56 63.91,72.68 			"/>
			<polygon class="st2" points="60.51,70.64 59.29,69.53 58.18,70.72 59.4,71.86 			"/>
			
				<rect x="46.74" y="76.52" transform="matrix(0.9805 -0.1965 0.1965 0.9805 -14.4571 11.0815)" class="st7" width="3.76" height="3.76"/>
			
				<rect x="52.34" y="75.56" transform="matrix(0.9805 -0.1964 0.1964 0.9805 -14.0877 12.0769)" class="st5" width="3.02" height="3.02"/>
			
				<rect x="46.54" y="71.53" transform="matrix(0.9805 -0.1967 0.1967 0.9805 -13.4273 10.8792)" class="st4" width="3.02" height="3.02"/>
			<polygon class="st3" points="53.91,73.71 53.45,71.39 51.14,71.86 51.6,74.17 			"/>
			
				<rect x="54.8" y="70.62" transform="matrix(0.9805 -0.1964 0.1964 0.9805 -13.0105 12.3914)" class="st1" width="2.35" height="2.35"/>
			
				<rect x="50.55" y="67.65" transform="matrix(0.9805 -0.1964 0.1964 0.9805 -12.5112 11.5001)" class="st7" width="2.35" height="2.35"/>
			
				<rect x="54.25" y="67.94" transform="matrix(0.9805 -0.1963 0.1963 0.9805 -12.429 12.1509)" class="st4" width="1.66" height="1.66"/>
			
				<rect x="51.08" y="64.65" transform="matrix(0.9804 -0.1968 0.1968 0.9804 -11.871 11.4965)" class="st2" width="1.66" height="1.66"/>
			<polygon class="st5" points="39.61,67.95 41.19,64.53 37.74,62.97 36.19,66.37 			"/>
			<polygon class="st3" points="44.46,69.44 45.72,66.69 42.97,65.43 41.71,68.18 			"/>
			<polygon class="st7" points="42.13,62.76 43.37,60.01 40.62,58.77 39.38,61.52 			"/>
			
				<rect x="43.97" y="62" transform="matrix(0.4149 -0.9099 0.9099 0.4149 -31.0664 78.0446)" class="st5" width="2.35" height="2.35"/>
			<polygon class="st2" points="48.6,70.09 49.57,67.95 47.42,66.98 46.46,69.11 			"/>
			
				<rect x="42.81" y="55.84" transform="matrix(0.4151 -0.9098 0.9098 0.4151 -26.1493 73.3641)" class="st1" width="2.35" height="2.35"/>
			
				<rect x="47.36" y="63.22" transform="matrix(0.4151 -0.9098 0.9098 0.4151 -30.1959 81.8284)" class="st6" width="2.35" height="2.35"/>
			
				<rect x="45.64" y="58.35" transform="matrix(0.4154 -0.9096 0.9096 0.4154 -26.7803 77.3901)" class="st3" width="2.35" height="2.35"/>
			<polygon class="st8" points="49.99,62.53 50.66,61.02 49.17,60.35 48.47,61.84 			"/>
			<polygon class="st4" points="49.34,57.99 50.03,56.48 48.52,55.81 47.82,57.3 			"/>
			<polygon class="st5" points="37.51,51.71 40.79,49.86 38.92,46.59 35.64,48.46 			"/>
			<polygon class="st4" points="40.58,55.77 43.2,54.28 41.71,51.65 39.09,53.14 			"/>
			<polygon class="st8" points="42.59,48.98 45.22,47.49 43.71,44.87 41.08,46.36 			"/>
			<polygon class="st7" points="44.36,52.7 46.39,51.55 45.22,49.51 43.18,50.66 			"/>
			<polygon class="st4" points="47,47.01 49.04,45.85 47.89,43.82 45.85,44.97 			"/>
			<polygon class="st5" points="46.37,55.66 48.43,54.49 47.26,52.45 45.22,53.62 			"/>
			<polygon class="st3" points="47.84,50.7 49.9,49.53 48.73,47.49 46.69,48.67 			"/>
			<polygon class="st2" points="49.1,53.37 50.53,52.57 49.71,51.12 48.26,51.94 			"/>
			<polygon class="st4" points="51.23,49.32 52.68,48.5 51.86,47.07 50.41,47.89 			"/>
			
				<rect x="45.51" y="33.79" transform="matrix(0.1063 -0.9943 0.9943 0.1063 6.8816 78.9996)" class="st4" width="3.76" height="3.76"/>
			
				<rect x="45.58" y="39.54" transform="matrix(0.1064 -0.9943 0.9943 0.1064 1.256 83.5122)" class="st2" width="3.02" height="3.02"/>
			
				<rect x="51.18" y="35.24" transform="matrix(0.1064 -0.9943 0.9943 0.1064 10.5411 85.2276)" class="st5" width="3.02" height="3.02"/>
			
				<rect x="50.4" y="39.9" transform="matrix(0.1065 -0.9943 0.9943 0.1065 5.2386 87.9887)" class="st3" width="2.35" height="2.35"/>
			
				<rect x="55.89" y="36.84" transform="matrix(0.1062 -0.9943 0.9943 0.1062 13.2099 90.7194)" class="st7" width="2.35" height="2.35"/>
			
				<rect x="50.33" y="43.5" transform="matrix(0.1066 -0.9943 0.9943 0.1066 1.5978 91.1284)" class="st5" width="2.35" height="2.35"/>
			
				<rect x="54.42" y="40.34" transform="matrix(0.1066 -0.9943 0.9943 0.1066 8.3941 92.3653)" class="st4" width="2.35" height="2.35"/>
			
				<rect x="53.83" y="43.88" transform="matrix(0.1063 -0.9943 0.9943 0.1063 4.3922 94.3002)" class="st8" width="1.66" height="1.66"/>
			
				<rect x="57.92" y="41.85" transform="matrix(0.1059 -0.9944 0.9944 0.1059 10.0927 96.5793)" class="st2" width="1.66" height="1.66"/>
			<path class="st9" d="M75.61,59.09c-0.27-0.17-0.8-0.42-1.49-0.65c-1.01-0.32-2.44-0.57-4.12-0.29c-0.57,0.08-1.16,0.23-1.79,0.46
				c-0.06,0.02-0.13,0.04-0.17,0.06c-0.32,0.13-0.63,0.25-0.95,0.42c-0.27,0.13-0.53,0.29-0.8,0.44c-0.61,0.36-1.2,0.78-1.79,1.22
				c-0.65-4.01-0.34-7.73-0.19-9.56c0,0,0.02-0.02,0.02,0c1.43,0.88,1.03,3.38,0.71,4.1c0,0.02,0.02,0.02,0.02,0.02
				c1.76-2.08,0.9-4.39,0.55-4.98c0-0.02,0-0.02,0.02-0.02c0.25,0.21,0.46,0.42,0.63,0.65c0.55,0.69,0.76,1.45,0.8,2.12
				c0.02,0.36,0.02,0.67,0,0.97c0,0.08-0.02,0.15-0.02,0.21c0,0.02,0,0.02,0.02,0.02l0,0c0.48-0.95,0.71-2.35,0-3.74
				c-0.19-0.38-0.46-0.74-0.8-1.09c-0.11-0.11-0.21-0.21-0.32-0.32c-0.02,0,0-0.02,0.02-0.02c0.11,0.02,0.21,0.06,0.32,0.08
				c0.29,0.11,0.57,0.25,0.8,0.42c0.55,0.4,0.9,0.95,1.11,1.51c0.19,0.46,0.27,0.95,0.25,1.39c0,0.02,0.02,0.02,0.02,0
				c0.34-1.22,0.13-2.14-0.29-2.81c-0.29-0.48-0.71-0.84-1.11-1.07c-0.27-0.17-0.57-0.29-0.8-0.36c-0.15-0.04-0.27-0.06-0.38-0.08
				c-0.02,0-0.02-0.02,0-0.02c0.13-0.02,0.25-0.02,0.38-0.02c0.29,0,0.57,0.02,0.8,0.06c0.48,0.08,0.84,0.25,1.11,0.44
				c0.44,0.29,0.67,0.65,0.76,0.8c0,0.02,0.02,0,0.02,0c-0.06-0.65-0.36-1.16-0.78-1.51c-0.32-0.27-0.71-0.48-1.11-0.59
				c-0.27-0.06-0.55-0.11-0.8-0.11c-0.36,0-0.71,0.06-1.01,0.19c-0.02,0-0.02,0-0.02-0.02c0.25-0.38,0.63-0.61,1.03-0.71
				c0.27-0.08,0.55-0.11,0.8-0.11c0.25,0.02,0.48,0.06,0.65,0.15c0.02,0,0.02-0.02,0.02-0.02c-0.21-0.23-0.42-0.42-0.67-0.55
				c-0.25-0.15-0.53-0.23-0.8-0.25c-0.71-0.08-1.45,0.23-1.93,0.97h-0.02c-0.08-0.17-0.19-0.36-0.27-0.55
				c-0.19-0.44-0.36-0.97-0.44-1.45c0-0.02-0.02-0.02-0.02,0c-0.08,0.5-0.25,1.01-0.44,1.47c-0.08,0.19-0.17,0.38-0.27,0.55h-0.02
				c-0.84-1.28-2.44-1.26-3.4-0.15c0,0.02,0,0.02,0.02,0.02c0.65-0.32,1.87-0.21,2.48,0.65c0,0.02,0,0.02-0.02,0.02
				c-0.95-0.4-2.39-0.15-3.17,0.78c-0.27,0.34-0.46,0.76-0.53,1.24c0,0.02,0.02,0.02,0.02,0c0.06-0.11,0.21-0.36,0.48-0.61
				c0.46-0.4,1.24-0.8,2.56-0.69c0.02,0,0.02,0.02,0,0.02c-0.67,0.08-2.06,0.67-2.56,2.06c-0.23,0.61-0.27,1.37-0.02,2.29
				c0,0.02,0.02,0.02,0.02,0s0-0.04,0-0.06c0.02-1.24,0.74-2.92,2.48-3.34c0.02,0,0.02,0.02,0.02,0.02
				c-1.97,1.74-1.79,3.86-1.13,5.13c0,0.02,0.02,0,0.02,0c-0.08-0.95-0.15-2.65,1.43-3.95c0.02,0,0.02,0,0.02,0.02
				c-0.36,0.59-1.22,2.9,0.55,4.98c0,0.02,0.04,0,0.02-0.02c-0.29-0.71-0.69-3.21,0.71-4.1h0.02c0.15,1.83,0.48,5.55-0.19,9.56
				c-1.13-0.88-2.35-1.64-3.53-2.1c-0.15-0.06-0.29-0.11-0.44-0.15c-1.24-0.4-2.35-0.53-3.34-0.48c-1.58,0.06-2.79,0.55-3.44,0.86
				c-0.13,0.06-0.25,0.13-0.34,0.19c-0.04,0.02,0,0.06,0.02,0.06c0.11-0.04,0.21-0.06,0.32-0.08c1.22-0.34,2.35-0.44,3.44-0.34
				c1.18,0.11,2.29,0.42,3.34,0.9c1.45,0.65,2.77,1.6,3.97,2.58c-1.68,1.47-3.11,2.9-3.97,3.4c-0.04,0.02-0.08,0.04-0.13,0.06
				c-0.21-0.27-0.57-0.44-0.97-0.36c-0.34,0.08-0.63,0.36-0.69,0.69c-0.06,0.29,0,0.63,0.19,0.8c0.46,0.46,0.99,0.48,1.6,0.23
				c1.18-0.48,2.63-2.04,4.39-3.65c0.15-0.13,0.29-0.27,0.46-0.4c0.15,0.13,0.29,0.27,0.44,0.4c0.8,0.74,1.55,1.45,2.23,2.08
				c0.27,0.25,0.55,0.48,0.8,0.69c0.4,0.32,0.78,0.59,1.11,0.78c0.67,0.36,1.28,0.4,1.79-0.04c0.02-0.02,0.06-0.04,0.08-0.06
				c0.13-0.13,0.25-0.5,0.19-0.8c-0.04-0.17-0.13-0.34-0.27-0.46c-0.13-0.11-0.27-0.19-0.44-0.23c-0.4-0.08-0.76,0.08-0.97,0.36
				c-0.13-0.06-0.25-0.15-0.38-0.23c-0.32-0.21-0.69-0.53-1.11-0.9c-0.25-0.23-0.53-0.46-0.8-0.71c-0.55-0.5-1.16-1.05-1.79-1.62
				c0.57-0.48,1.18-0.92,1.79-1.37c0.25-0.17,0.53-0.36,0.8-0.5c0.36-0.21,0.74-0.42,1.11-0.61c0.57-0.27,1.16-0.5,1.79-0.67
				c1.28-0.36,2.65-0.48,4.12-0.25c0.48,0.08,0.97,0.19,1.47,0.34C75.63,59.15,75.65,59.11,75.61,59.09"/>
			<rect x="10.81" y="100.02" class="st0" width="1.11" height="1.11"/>
			<path class="st0" d="M85.46,98.74v-7.31h-1.07v6.24h-4.07v-6.24h-1.07v6.24h-4.31v-6.24h-1.7c-0.67,0-1.28,0.08-1.85,0.27
				c-0.55,0.19-1.01,0.44-1.41,0.78c-0.38,0.34-0.69,0.71-0.9,1.18c-0.21,0.44-0.32,0.95-0.32,1.45c0,0.63,0.13,1.18,0.36,1.64
				c0.25,0.46,0.57,0.84,0.97,1.13c0.4,0.29,0.88,0.53,1.43,0.65c0.55,0.15,1.11,0.21,1.7,0.21H85.46z M71.64,97.48
				c-0.36-0.13-0.67-0.29-0.92-0.5c-0.27-0.21-0.48-0.48-0.63-0.82c-0.15-0.32-0.23-0.67-0.23-1.09c0-0.38,0.08-0.74,0.25-1.05
				c0.17-0.32,0.38-0.59,0.67-0.82c0.27-0.23,0.59-0.4,0.95-0.53c0.36-0.13,0.71-0.19,1.07-0.19h1.07v5.17H72.8
				C72.38,97.65,72,97.61,71.64,97.48"/>
			<rect x="62.36" y="89.06" class="st0" width="1.07" height="9.68"/>
			<rect x="73.83" y="89.06" class="st0" width="1.11" height="1.11"/>
			<rect x="84.37" y="100" class="st0" width="1.11" height="1.11"/>
			<rect x="12.7" y="100" class="st0" width="1.11" height="1.11"/>
			<path class="st0" d="M58.14,97.65h-1.76c-0.63,0-1.13-0.08-1.49-0.27c-0.36-0.19-0.65-0.44-0.86-0.82
				c0.06-0.27,0.11-0.61,0.11-1.01v-3.49h-1.07v3.65c0,0.63-0.17,1.11-0.5,1.49s-0.84,0.57-1.51,0.57c-0.32,0-0.61-0.04-0.86-0.15
				s-0.48-0.23-0.67-0.4c-0.19-0.17-0.34-0.38-0.44-0.61c-0.11-0.23-0.17-0.48-0.17-0.74v-3.82h-1.07v3.74
				c0,0.34-0.04,0.61-0.15,0.84c-0.11,0.23-0.23,0.42-0.4,0.57c-0.17,0.15-0.36,0.25-0.59,0.32c-0.21,0.06-0.44,0.11-0.69,0.11h-2.1
				v-5.57h-1.07v5.57h-5.67l1.89-4.52c-0.29-0.25-0.59-0.48-0.92-0.71c-0.32-0.21-0.65-0.42-1.01-0.59
				c-0.34-0.17-0.69-0.29-1.05-0.4c-0.36-0.08-0.69-0.15-1.05-0.15s-0.69,0.04-1.05,0.15s-0.69,0.23-1.05,0.38
				c-0.34,0.17-0.67,0.36-1.01,0.59c-0.32,0.23-0.61,0.46-0.9,0.71l1.91,4.52h-3.74v-6.24h-1.72c-0.67,0-1.28,0.08-1.83,0.27
				c-0.55,0.19-1.03,0.44-1.41,0.78c-0.4,0.34-0.69,0.71-0.9,1.18C23.1,94.06,23,94.54,23,95.07c0,0.63,0.13,1.18,0.36,1.64
				c0.23,0.46,0.57,0.82,0.97,1.11c0.4,0.29,0.88,0.5,1.43,0.65c0.55,0.15,1.11,0.21,1.72,0.21h0.65V99c0,0.57-0.17,0.97-0.48,1.22
				c-0.32,0.25-0.78,0.36-1.37,0.36c-0.34,0-0.63-0.02-0.9-0.08c-0.27-0.06-0.57-0.17-0.9-0.32l-0.34,1.03
				c0.42,0.15,0.78,0.27,1.09,0.34c0.32,0.08,0.65,0.11,0.97,0.11c1.05,0,1.83-0.25,2.29-0.76c0.48-0.5,0.71-1.18,0.71-2.02v-0.21
				h16.78c0.53,0,0.99-0.11,1.41-0.34c0.4-0.23,0.74-0.53,0.99-0.9c0.25,0.44,0.61,0.78,1.07,1.01c0.44,0.25,0.99,0.36,1.62,0.36
				c0.65,0,1.2-0.11,1.66-0.34c0.46-0.23,0.8-0.57,1.05-1.03c0.08,0.15,0.21,0.29,0.34,0.46c0.13,0.15,0.29,0.27,0.5,0.4
				c0.21,0.13,0.46,0.21,0.76,0.27c0.23,0.06,0.48,0.08,0.78,0.11v0.02h3.07V89h-1.07V97.65z M28.08,97.65h-1.09
				c-0.4,0-0.78-0.06-1.13-0.17s-0.67-0.27-0.95-0.48c-0.27-0.21-0.48-0.48-0.63-0.8c-0.15-0.32-0.23-0.67-0.23-1.07
				c0-0.38,0.08-0.74,0.25-1.07c0.17-0.32,0.38-0.61,0.65-0.82c0.27-0.23,0.59-0.4,0.95-0.53c0.36-0.13,0.71-0.19,1.09-0.19h1.09
				V97.65z M34.04,97.65l-1.68-4.14c0.42-0.36,0.84-0.61,1.28-0.78s0.88-0.25,1.37-0.25s0.97,0.11,1.45,0.29
				c0.48,0.19,0.88,0.44,1.22,0.71L36,97.63h-1.95V97.65z"/>
			<rect x="7.09" y="89.06" class="st0" width="1.11" height="1.11"/>
			<rect x="116.4" y="89.06" class="st0" width="1.11" height="1.11"/>
			<rect x="106.83" y="89.06" class="st0" width="1.07" height="9.68"/>
			<rect x="71.94" y="89.06" class="st0" width="1.11" height="1.11"/>
			<path class="st0" d="M21.25,94.48c0-0.42-0.06-0.82-0.17-1.2s-0.29-0.69-0.53-0.95c-0.29-0.32-0.61-0.55-0.97-0.71
				c-0.36-0.15-0.8-0.23-1.3-0.23h-0.8v1.07h0.95c0.25,0,0.5,0.06,0.74,0.17c0.23,0.11,0.42,0.25,0.59,0.44
				c0.15,0.19,0.25,0.4,0.32,0.63c0.06,0.23,0.08,0.5,0.08,0.82v3.13H15.1v1.07h6.15L21.25,94.48L21.25,94.48z"/>
			<rect x="163.98" y="89.06" class="st0" width="1.07" height="9.68"/>
			<rect x="118.3" y="89.06" class="st0" width="1.11" height="1.11"/>
			<path class="st0" d="M160.85,89.06h-1.07v8.59h-3.74c0.23-0.5,0.34-1.03,0.34-1.6c0-0.57-0.11-1.07-0.29-1.55
				c-0.21-0.48-0.48-0.9-0.84-1.24c-0.36-0.36-0.78-0.63-1.24-0.84c-0.48-0.21-1.01-0.29-1.55-0.29c-0.55,0-1.05,0.11-1.51,0.32
				s-0.88,0.48-1.22,0.84c-0.34,0.36-0.61,0.78-0.82,1.24c-0.19,0.48-0.29,0.99-0.29,1.53c0,0.29,0.02,0.57,0.08,0.82
				c0.06,0.27,0.15,0.53,0.23,0.76h-3.34c0.23-0.5,0.34-1.03,0.34-1.6c0-0.57-0.11-1.07-0.29-1.55c-0.21-0.48-0.48-0.9-0.84-1.24
				c-0.36-0.36-0.78-0.63-1.24-0.84c-0.48-0.21-1.01-0.29-1.55-0.29c-0.55,0-1.05,0.11-1.51,0.32c-0.46,0.21-0.88,0.48-1.22,0.84
				c-0.36,0.36-0.61,0.78-0.82,1.24c-0.19,0.48-0.29,0.99-0.29,1.53c0,0.29,0.02,0.57,0.08,0.82c0.06,0.27,0.15,0.53,0.23,0.76
				h-3.42v-8.59h-1.07v8.59h-3.44v-1.66c0-0.42-0.06-0.8-0.17-1.18s-0.27-0.69-0.5-0.95c-0.27-0.32-0.59-0.55-0.95-0.69
				c-0.36-0.15-0.8-0.23-1.34-0.23h-4.79l2.04-3.89h-1.18l-2.08,3.86c0.04,0.23,0.08,0.44,0.17,0.61c0.08,0.17,0.19,0.34,0.32,0.48
				h5.5c0.34,0,0.63,0.04,0.88,0.15c0.25,0.11,0.44,0.25,0.61,0.42c0.15,0.19,0.25,0.38,0.32,0.63c0.06,0.23,0.08,0.5,0.08,0.78
				v1.66h-10v-6.24h-1.7c-0.67,0-1.28,0.08-1.83,0.27c-0.55,0.19-1.01,0.44-1.41,0.78c-0.38,0.34-0.69,0.71-0.9,1.18
				c-0.21,0.44-0.32,0.95-0.32,1.45c0,0.63,0.13,1.18,0.36,1.64c0.25,0.46,0.57,0.84,0.97,1.13c0.4,0.29,0.88,0.53,1.43,0.65
				c0.55,0.15,1.11,0.21,1.7,0.21h21.45c0.36,0.38,0.78,0.67,1.26,0.9c0.48,0.21,1.01,0.34,1.58,0.34c0.57,0,1.11-0.11,1.62-0.32
				c0.5-0.21,0.92-0.53,1.28-0.9h4.75c0.36,0.38,0.78,0.67,1.26,0.9c0.48,0.21,1.01,0.34,1.58,0.34s1.11-0.11,1.62-0.32
				c0.5-0.21,0.92-0.53,1.28-0.9h5.5v-9.66H160.85z M118.32,97.65h-1.07c-0.4,0-0.78-0.06-1.13-0.17c-0.36-0.13-0.67-0.29-0.92-0.5
				c-0.27-0.21-0.48-0.48-0.63-0.82c-0.15-0.32-0.23-0.67-0.23-1.09c0-0.38,0.08-0.74,0.25-1.05c0.17-0.32,0.38-0.59,0.67-0.82
				c0.27-0.23,0.59-0.4,0.95-0.53c0.36-0.13,0.71-0.19,1.07-0.19h1.07v5.17H118.32z M144.59,97.17c-0.15,0.34-0.36,0.65-0.61,0.9
				c-0.25,0.25-0.57,0.44-0.9,0.59c-0.36,0.15-0.71,0.21-1.13,0.21c-0.4,0-0.76-0.08-1.09-0.23c-0.34-0.15-0.63-0.36-0.88-0.61
				c-0.25-0.25-0.44-0.55-0.59-0.9c-0.15-0.34-0.21-0.71-0.21-1.09s0.06-0.76,0.21-1.09c0.15-0.34,0.34-0.65,0.57-0.9
				c0.25-0.25,0.53-0.46,0.86-0.61s0.71-0.23,1.11-0.23c0.42,0,0.8,0.06,1.13,0.21c0.36,0.15,0.65,0.34,0.9,0.59
				c0.25,0.25,0.46,0.55,0.61,0.9c0.15,0.34,0.21,0.74,0.21,1.13C144.82,96.45,144.74,96.83,144.59,97.17 M155.08,97.17
				c-0.15,0.34-0.36,0.65-0.61,0.9c-0.25,0.25-0.57,0.44-0.9,0.59c-0.34,0.15-0.71,0.21-1.13,0.21c-0.4,0-0.76-0.08-1.09-0.23
				c-0.34-0.15-0.63-0.36-0.88-0.61c-0.25-0.25-0.44-0.55-0.59-0.9c-0.15-0.34-0.21-0.71-0.21-1.09s0.06-0.76,0.21-1.09
				c0.15-0.34,0.34-0.65,0.57-0.9c0.25-0.25,0.53-0.46,0.86-0.61s0.71-0.23,1.11-0.23c0.42,0,0.8,0.06,1.13,0.21
				c0.36,0.15,0.65,0.34,0.9,0.59c0.25,0.25,0.46,0.55,0.61,0.9c0.15,0.34,0.21,0.74,0.21,1.13
				C155.31,96.45,155.22,96.83,155.08,97.17"/>
			<path class="st0" d="M4.8,98.51c0.55,0.15,1.11,0.21,1.7,0.21h7.08v-7.31h-1.07v6.24H8.23v-6.24h-1.7
				c-0.67,0-1.28,0.08-1.83,0.27c-0.55,0.19-1.01,0.44-1.41,0.78c-0.38,0.34-0.69,0.71-0.9,1.18c-0.21,0.44-0.32,0.95-0.32,1.45
				c0,0.63,0.13,1.18,0.36,1.64C2.68,97.19,3,97.57,3.4,97.86C3.8,98.16,4.28,98.39,4.8,98.51 M3.15,95.09
				c0-0.38,0.08-0.74,0.25-1.05c0.17-0.32,0.38-0.59,0.65-0.82c0.27-0.23,0.59-0.4,0.95-0.53c0.36-0.13,0.71-0.19,1.07-0.19h1.07
				v5.17H6.07c-0.4,0-0.78-0.06-1.13-0.17c-0.36-0.13-0.67-0.29-0.92-0.5c-0.27-0.21-0.48-0.48-0.63-0.82
				C3.21,95.84,3.15,95.49,3.15,95.09"/>
			<rect x="80.42" y="100" class="st0" width="1.11" height="1.11"/>
			<rect x="78.53" y="100" class="st0" width="1.11" height="1.11"/>
			<path class="st0" d="M89.69,100.11c0.06-0.34,0.11-0.71,0.11-1.13v-0.23h13.91v-9.68h-1.07v8.59h-4.6l1.89-4.52
				c-0.29-0.25-0.59-0.48-0.92-0.71c-0.32-0.21-0.65-0.42-1.01-0.59c-0.34-0.17-0.69-0.29-1.05-0.4c-0.36-0.08-0.69-0.15-1.03-0.15
				c-0.36,0-0.69,0.04-1.05,0.15c-0.36,0.11-0.69,0.23-1.05,0.38c-0.36,0.17-0.67,0.36-1.01,0.59c-0.32,0.23-0.61,0.46-0.9,0.71
				l1.91,4.52h-4.03v-6.24H88.7v7.54c0,0.32-0.02,0.57-0.04,0.78c-0.04,0.21-0.08,0.38-0.17,0.5c-0.08,0.13-0.19,0.23-0.32,0.27
				c-0.13,0.06-0.29,0.08-0.5,0.08c-0.11,0-0.19,0-0.25-0.02c-0.06,0-0.17-0.04-0.29-0.06l-0.27,1.03c0.29,0.08,0.59,0.13,0.88,0.13
				c0.38,0,0.71-0.06,0.99-0.19c0.27-0.13,0.48-0.32,0.65-0.55C89.5,100.74,89.6,100.44,89.69,100.11 M93.26,93.51
				c0.42-0.36,0.84-0.61,1.28-0.78c0.44-0.17,0.9-0.25,1.37-0.25c0.48,0,0.97,0.11,1.45,0.29c0.48,0.19,0.88,0.44,1.22,0.71
				l-1.68,4.14h-1.93L93.26,93.51z"/>
			<rect x="5.2" y="89.06" class="st0" width="1.11" height="1.11"/>
			<polygon class="st0" points="9.8,105.82 8.14,105.82 4.47,109.69 4.47,105.82 3.12,105.82 3.12,113.53 4.47,113.53 4.47,111.28 
				5.67,110.07 8.31,113.53 9.95,113.53 6.61,109.14 			"/>
			<rect x="11.19" y="105.82" class="st0" width="1.37" height="7.71"/>
			<polygon class="st0" points="20.03,111.16 15.9,105.82 14.64,105.82 14.64,113.53 15.98,113.53 15.98,108.05 20.22,113.53 
				21.36,113.53 21.36,105.82 20.03,105.82 			"/>
			<path class="st0" d="M26.99,110.4h1.97v1.45c-0.48,0.36-1.13,0.59-1.87,0.59c-1.58,0-2.63-1.18-2.63-2.75v-0.02
				c0-1.47,1.07-2.71,2.5-2.71c0.99,0,1.58,0.32,2.16,0.82l0.86-1.03c-0.8-0.67-1.62-1.05-2.96-1.05c-2.33,0-3.97,1.83-3.97,3.99
				v0.02c0,2.25,1.6,3.97,4.01,3.97c1.37,0,2.46-0.55,3.21-1.2v-3.23h-3.28v1.16H26.99z"/>
			<path class="st0" d="M35.01,105.82h-2.88v7.71h2.88c2.42,0,4.1-1.68,4.1-3.84v-0.02C39.11,107.48,37.45,105.82,35.01,105.82
				 M37.7,109.69c0,1.51-1.05,2.6-2.69,2.6H33.5v-5.23h1.51C36.63,107.06,37.7,108.17,37.7,109.69L37.7,109.69z"/>
			<path class="st0" d="M44.44,105.7c-2.37,0-4.05,1.81-4.05,3.99v0.02c0,2.16,1.66,3.97,4.03,3.97c2.37,0,4.05-1.81,4.05-3.99
				v-0.02C48.45,107.48,46.79,105.7,44.44,105.7 M47.03,109.69c0,1.49-1.07,2.71-2.6,2.71s-2.63-1.24-2.63-2.73v-0.02
				c0-1.49,1.07-2.71,2.6-2.71c1.53,0,2.63,1.24,2.63,2.73V109.69z"/>
			<polygon class="st0" points="53.94,109.46 51.58,105.82 50.13,105.82 50.13,113.53 51.48,113.53 51.48,108.03 53.89,111.64 
				53.94,111.64 56.37,108.01 56.37,113.53 57.72,113.53 57.72,105.82 56.29,105.82 			"/>
			<path class="st0" d="M66.73,105.7c-2.37,0-4.05,1.81-4.05,3.99v0.02c0,2.16,1.66,3.97,4.03,3.97c2.37,0,4.05-1.81,4.05-3.99
				v-0.02C70.76,107.48,69.1,105.7,66.73,105.7 M69.33,109.69c0,1.49-1.07,2.71-2.6,2.71s-2.63-1.24-2.63-2.73v-0.02
				c0-1.49,1.07-2.71,2.6-2.71s2.63,1.24,2.63,2.73V109.69z"/>
			<polygon class="st0" points="72.44,113.53 73.79,113.53 73.79,110.38 77.69,110.38 77.69,109.16 73.79,109.16 73.79,107.06 
				78.18,107.06 78.18,105.82 72.44,105.82 			"/>
			<path class="st0" d="M85.95,109.06c-1.47-0.36-1.83-0.61-1.83-1.22v-0.02c0-0.5,0.46-0.92,1.26-0.92c0.71,0,1.41,0.27,2.1,0.8
				l0.74-1.03c-0.78-0.63-1.68-0.97-2.79-0.97c-1.53,0-2.65,0.9-2.65,2.23v0.02c0,1.43,0.92,1.91,2.56,2.29
				c1.43,0.34,1.74,0.63,1.74,1.18v0.02c0,0.59-0.53,0.97-1.37,0.97c-0.97,0-1.7-0.36-2.44-1.01l-0.82,0.97
				c0.92,0.82,2.04,1.24,3.21,1.24c1.62,0,2.75-0.86,2.75-2.31v-0.02C88.45,110.04,87.59,109.46,85.95,109.06"/>
			<path class="st0" d="M92.59,105.76l-3.4,7.75h1.39l0.8-1.87h3.65l0.78,1.87h1.43l-3.4-7.75H92.59z M91.87,110.46l1.32-3.09
				l1.34,3.09H91.87z"/>
			<path class="st0" d="M103.3,110.25c0,1.43-0.74,2.14-1.93,2.14c-1.22,0-1.95-0.78-1.95-2.21v-4.39h-1.37v4.43
				c0,2.23,1.28,3.38,3.28,3.38c2.02,0,3.32-1.16,3.32-3.44v-4.37h-1.37v4.45H103.3z"/>
			<path class="st0" d="M109.52,105.82h-2.88v7.71h2.88c2.42,0,4.1-1.68,4.1-3.84v-0.02C113.61,107.48,111.93,105.82,109.52,105.82
				 M112.18,109.69c0,1.51-1.05,2.6-2.69,2.6h-1.51v-5.23h1.51C111.11,107.06,112.18,108.17,112.18,109.69L112.18,109.69z"/>
			<rect x="115.33" y="105.82" class="st0" width="1.37" height="7.71"/>
			<path class="st0" d="M124.79,105.76l-3.4,7.75h1.39l0.8-1.87h3.65l0.78,1.87h1.43l-3.4-7.75H124.79z M124.07,110.46l1.32-3.09
				l1.34,3.09H124.07z"/>
			<path class="st0" d="M137.03,108.28v-0.02c0-0.67-0.23-1.24-0.63-1.66c-0.5-0.48-1.26-0.78-2.23-0.78h-3.44v7.71h1.37v-2.69h1.68
				h0.02l1.89,2.69h1.6l-2.08-2.92C136.28,110.3,137.03,109.54,137.03,108.28 M132.07,109.65v-2.58h1.97c1.01,0,1.6,0.46,1.6,1.28
				v0.02c0,0.78-0.61,1.28-1.6,1.28L132.07,109.65L132.07,109.65z"/>
			<path class="st0" d="M141.67,105.76l-3.4,7.75h1.39l0.8-1.87h3.65l0.78,1.87h1.43l-3.4-7.75H141.67z M140.96,110.46l1.32-3.09
				l1.34,3.09H140.96z"/>
			<path class="st0" d="M152.49,109.52c0.57-0.29,1.09-0.8,1.09-1.72v-0.02c0-0.53-0.17-0.95-0.53-1.28
				c-0.44-0.44-1.13-0.69-2.02-0.69h-3.47v7.71h3.57c1.72,0,2.86-0.74,2.86-2.12v-0.02C154.03,110.34,153.39,109.83,152.49,109.52
				 M148.94,107.02h1.95c0.86,0,1.37,0.38,1.37,0.99v0.02c0,0.71-0.59,1.05-1.45,1.05h-1.85v-2.06H148.94z M152.68,111.26
				c0,0.69-0.57,1.05-1.49,1.05h-2.25v-2.1h2.14c1.07,0,1.6,0.38,1.6,1.03V111.26z"/>
			<rect x="155.71" y="105.82" class="st0" width="1.37" height="7.71"/>
			<path class="st0" d="M163.02,105.76h-1.26l-3.4,7.77h1.39l0.8-1.87h3.65l0.78,1.87h1.43L163.02,105.76z M161.04,110.46l1.32-3.09
				l1.34,3.09H161.04z"/>
		</g>
	</g>
</g>
</svg>
